# xmcd CD database file
#
# Track frame offsets:
#	150
#	18130
#	37240
#	54450
#	74424
#	92394
#	116783
#	135214
#	155059
#	177986
#	195502
#	212873
#	236576
#	258073
#	280933
#
# Disc length: 4014 seconds
#
# Revision: 2
# Processed by: cddbd v1.4PL0 Copyright (c) Steve Scherf et al.
# Submitted via: CDex 1.40Beta9
#
DISCID=cf0fac0f
DTITLE=Cool - Cool 7th
DYEAR=2001
DGENRE=Ballad
TTITLE0=I Love You
TTITLE1=Tell me why
TTITLE2=White Christmas
TTITLE3=Aruha
TTITLE4=Heeojineun Nal
TTITLE5=Geuraeseo Haengbogamnida
TTITLE6=Nawibaraem
TTITLE7=Soweon
TTITLE8=Love Again
TTITLE9=Haneullo Sseuneun Peonji
TTITLE10=Amagudaen
TTITLE11=Wedingjeonya
TTITLE12=Geunyeowi Georonsik
TTITLE13=Hanjangwi Chueok
TTITLE14=Uri Ireoke Saro Seuchyeo Bonaemeon
EXTD=YEAR: 2001 ID3G: 116
EXTT0=
EXTT1=
EXTT2=
EXTT3=
EXTT4=
EXTT5=
EXTT6=
EXTT7=
EXTT8=
EXTT9=
EXTT10=
EXTT11=
EXTT12=
EXTT13=
EXTT14=
PLAYORDER=
